<svg viewBox="0 0 1024 1024" version="1.1" xmlns="http://www.w3.org/2000/svg" xmlns:xlink="http://www.w3.org/1999/xlink"><path d="M924.554224 179.878726C849.535677 144.210174 612.606771 34.230107 536.14978 4.632279a63.608511 63.608511 0 0 0-47.102969 0C414.759677 34.473912 187.777982 139.577895 106.225483 177.489445a75.262351 75.262351 0 0 0-41.276049 53.636921c0 97.107206-2.194238 347.152777-2.194237 444.723211a75.993764 75.993764 0 0 0 30.353621 60.707241l350.054046 264.356876a114.100358 114.100358 0 0 0 137.651842 0L930.600568 736.532438a76.188807 76.188807 0 0 0 30.353621-60.951046V229.175932a61.19485 61.19485 0 0 0-36.424345-49.297206zM879.157885 645.73976a62.36511 62.36511 0 0 1-24.282897 48.541413L568.185649 911.827646a93.450143 93.450143 0 0 1-112.637532 0l-286.226112-216.303072a62.145686 62.145686 0 0 1-24.258516-48.541413c0-79.87025 1.706629-284.031874 1.706629-364.145928a61.682458 61.682458 0 0 1 33.742499-43.933514c66.753585-30.841229 252.459232-117.026008 314.11731-141.528328a52.174095 52.174095 0 0 1 38.350398 0c61.438654 24.282897 255.384882 114.344162 315.604516 143.454381a49.979858 49.979858 0 0 1 29.841632 40.300832l0.731412 364.633536z" fill="#1296db"></path><path d="M636.40206 366.315785l-190.069742 190.069742-58.756808-58.756808a46.63974 46.63974 0 0 0-78.261143 13.701795 46.61536 46.61536 0 0 0 12.482775 52.100954l91.52409 94.205936a46.61536 46.61536 0 0 0 65.778369 0l223.080827-223.105208a47.395533 47.395533 0 0 0-65.778368-68.216411z" fill="#1296db"></path></svg>
